<svg xmlns="http://www.w3.org/2000/svg" viewBox="0 0 18 18"><defs><linearGradient id="azroles-a" x1="6.35" y1="16.6" x2="6.35" y2="1.03" gradientUnits="userSpaceOnUse"><stop offset="0" stop-color="#198ab3"/><stop offset=".16" stop-color="#1f9ac2"/><stop offset=".5" stop-color="#29bade"/><stop offset=".8" stop-color="#30cdef"/><stop offset="1" stop-color="#32d4f5"/></linearGradient></defs><path d="M6.35 1.03a6.86 6.86 0 0 1 5.09 2.24H9.86a.6.6 0 0 0 0 1.2h2.87a6.7 6.7 0 0 1 .43 1.2H9.86a.6.6 0 0 0 0 1.2h3.53a6.9 6.9 0 0 1-.66 3.83H9.86a.6.6 0 0 0 0 1.2h2.13a6.85 6.85 0 1 1-5.64-10.87z" fill="url(#azroles-a)"/><path d="M6.35 4.2a2.25 2.25 0 1 1 0 4.5 2.25 2.25 0 0 1 0-4.5zm0 5.4c2.13 0 3.86 1.2 3.86 2.68v.83a.5.5 0 0 1-.5.5H2.99a.5.5 0 0 1-.5-.5v-.83c0-1.48 1.73-2.68 3.86-2.68z" fill="#fff"/><path d="M14.62 4.47a2.62 2.62 0 1 0 0 5.24 2.62 2.62 0 0 0 0-5.24zm0 1.36a1.26 1.26 0 1 1 0 2.52 1.26 1.26 0 0 1 0-2.52z" fill="#0078d4"/><path d="M13.7 8.7l-2.1 2.11v1.53a.4.4 0 0 0 .4.4h1.42l.63-.63v-.9h.9l.63-.64V8.7z" fill="#50e6ff"/></svg>
