<svg xmlns="http://www.w3.org/2000/svg" viewBox="0 0 100 100">
  <circle cx="50" cy="50" r="48" fill="none" stroke="#6366f1" stroke-width="4"/>
  <!-- Wheel segments (8 segments, alternating colors) -->
  <path d="M50,50 L50,4 A46,46 0 0,1 82.5,18.5 Z" fill="#6366f1" opacity="0.9"/>
  <path d="M50,50 L82.5,18.5 A46,46 0 0,1 96,50 Z" fill="#8b5cf6" opacity="0.9"/>
  <path d="M50,50 L96,50 A46,46 0 0,1 82.5,81.5 Z" fill="#a855f7" opacity="0.9"/>
  <path d="M50,50 L82.5,81.5 A46,46 0 0,1 50,96 Z" fill="#6366f1" opacity="0.9"/>
  <path d="M50,50 L50,96 A46,46 0 0,1 17.5,81.5 Z" fill="#8b5cf6" opacity="0.9"/>
  <path d="M50,50 L17.5,81.5 A46,46 0 0,1 4,50 Z" fill="#a855f7" opacity="0.9"/>
  <path d="M50,50 L4,50 A46,46 0 0,1 17.5,18.5 Z" fill="#6366f1" opacity="0.9"/>
  <path d="M50,50 L17.5,18.5 A46,46 0 0,1 50,4 Z" fill="#8b5cf6" opacity="0.9"/>
  <!-- Center circle -->
  <circle cx="50" cy="50" r="8" fill="white" stroke="#6366f1" stroke-width="2"/>
  <!-- Pointer -->
  <polygon points="50,0 44,12 56,12" fill="#ef4444"/>
</svg>